<svg xmlns="http://www.w3.org/2000/svg" xmlns:xlink="http://www.w3.org/1999/xlink" version="1.1" x="0px" y="0px" viewBox="0 0 50 62.5" enable-background="new 0 0 50 50" xml:space="preserve"><g><path fill-rule="evenodd" clip-rule="evenodd" d="M16.167,35.496h17.666l-0.888,11.667H17.056L16.167,35.496z M13.411,29.808H36.59   v2.851H13.411V29.808z M26.971,15.44l7.207-0.575v-3.744c0-0.728,0.326-1.318,1.099-1.315c0.748,0.003,1.19,0.59,1.19,1.315   c0,1.323-0.03,2.657,0.035,3.978c0.045,0.874,0.09,1.748-0.669,1.921l-8.863,0.877v9.073h-3.931l0.08-5.569l-8.349-2.45   c-1.356-0.629-1.265-1.805-1.265-3.117v-5.104c0-0.724,0.362-1.312,1.125-1.312c0.75,0,1.164,0.593,1.164,1.312v6.144l7.235,2.105   V4.808c0-1.085,0.886-1.971,1.971-1.971c1.081,0,1.971,0.889,1.971,1.971V15.44z M35.288,6.981   c-2.351-0.015-3.948,1.799-3.948,4.141v1.125l-1.532,0.122V4.808C29.808,2.16,27.648,0,25,0c-2.643,0-4.808,2.162-4.808,4.808   V15.21l-1.56-0.455v-4.025c0-2.353-1.665-4.131-4.001-4.138c-2.349-0.008-3.962,1.79-3.962,4.138v5.104   c0,2.386,0.546,5.024,3.197,5.801l6.405,1.879l-0.051,3.456h-9.646v8.525h2.752L14.43,50h21.141l1.105-14.504h2.751v-8.525h-9.62   v-6.512l6.374-0.631c3.037-0.432,3.28-2.285,3.147-4.872c-0.063-1.263-0.025-2.567-0.025-3.834   C39.304,8.774,37.615,6.993,35.288,6.981z"/></g><text x="0" y="65" fill="#000000" font-size="5px" font-weight="bold" font-family="'Helvetica Neue', Helvetica, Arial-Unicode, Arial, Sans-serif">Created by Georgiana Ionescu</text><text x="0" y="70" fill="#000000" font-size="5px" font-weight="bold" font-family="'Helvetica Neue', Helvetica, Arial-Unicode, Arial, Sans-serif">from the Noun Project</text></svg>