<svg xmlns="http://www.w3.org/2000/svg" xmlns:xlink="http://www.w3.org/1999/xlink" version="1.1" x="0px" y="0px" viewBox="0 0 50 62.5" enable-background="new 0 0 50 50" xml:space="preserve"><g><path fill-rule="evenodd" clip-rule="evenodd" d="M31.942,15.526c0,4.982,4.046,9.029,9.029,9.029c4.986,0,9.03-4.043,9.03-9.029   c0-4.983-4.047-9.029-9.03-9.029C35.984,6.497,31.942,10.54,31.942,15.526 M40.97,21.631c-3.376,0-6.105-2.729-6.105-6.105   c0-3.372,2.733-6.105,6.105-6.105c3.375,0,6.106,2.729,6.106,6.105C47.076,18.898,44.343,21.631,40.97,21.631z M31.949,23.098   c-0.745-0.888-1.35-1.873-1.801-2.924h-14.28v2.924H31.949z M19.415,36.426c1.147,0,2.077,0.929,2.077,2.076   c0,1.147-0.93,2.077-2.077,2.077c-1.147,0-2.076-0.93-2.076-2.077C17.339,37.356,18.269,36.426,19.415,36.426z M31.688,38.502   c0-1.147,0.93-2.076,2.076-2.076c1.149,0,2.076,0.928,2.076,2.076c0,1.152-0.924,2.077-2.076,2.077   C32.616,40.579,31.688,39.65,31.688,38.502z M10.926,16.966l18.356,0.01c-0.059-0.478-0.089-0.962-0.089-1.449   c0-0.492,0.031-0.98,0.09-1.463l-19.137-0.01L8.279,7.088H0v2.923h6.04l6.779,25.301h2.745c-0.718,0.866-1.149,1.978-1.149,3.189   c0,2.761,2.238,5,5,5c2.762,0,5.001-2.239,5.001-5c0-1.211-0.432-2.323-1.15-3.189h6.648c-0.718,0.866-1.149,1.978-1.149,3.189   c0,2.756,2.245,5,5,5c2.758,0,5-2.242,5-5c0-1.211-0.432-2.323-1.15-3.189h2.745l2.174-8.112c-0.515,0.069-1.037,0.104-1.563,0.104   c-0.492,0-0.98-0.031-1.462-0.091l-1.387,5.175H15.059L10.926,16.966z M36.316,26.284H16.982v2.923h19.334V26.284z M39.668,19.909   l5.834-7.066l-2.054-1.701l-4.162,5.04l-1.282-1.03l-1.669,2.076L39.668,19.909z"/></g><text x="0" y="65" fill="#000000" font-size="5px" font-weight="bold" font-family="'Helvetica Neue', Helvetica, Arial-Unicode, Arial, Sans-serif">Created by Georgiana Ionescu</text><text x="0" y="70" fill="#000000" font-size="5px" font-weight="bold" font-family="'Helvetica Neue', Helvetica, Arial-Unicode, Arial, Sans-serif">from the Noun Project</text></svg>