<svg xmlns="http://www.w3.org/2000/svg" xmlns:xlink="http://www.w3.org/1999/xlink" version="1.1" x="0px" y="0px" viewBox="0 0 50 62.5" enable-background="new 0 0 50 50" xml:space="preserve"><g><path fill-rule="evenodd" clip-rule="evenodd" d="M37.078,25c0,6.675-5.412,12.087-12.087,12.087   c-6.676,0-12.087-5.412-12.087-12.087c0-6.676,5.412-12.087,12.087-12.087C31.666,12.913,37.078,18.324,37.078,25 M24.991,31.586   c3.638,0,6.587-2.948,6.587-6.586c0-0.527-0.063-1.04-0.179-1.531l-6.63,1.729l3.187-6.081c-0.891-0.45-1.898-0.703-2.964-0.703   c-3.638,0-6.586,2.948-6.586,6.586S21.353,31.586,24.991,31.586z M24.527,40.902C35.951,41.189,44.323,34.309,50,25   C44.322,15.691,35.951,8.811,24.526,9.098C13.692,9.372,5.314,15.96,0,25C5.314,34.041,13.692,40.628,24.527,40.902z"/></g></svg>