<svg xmlns="http://www.w3.org/2000/svg" xmlns:xlink="http://www.w3.org/1999/xlink" version="1.1" x="0px" y="0px" viewBox="0 0 50 62.5" enable-background="new 0 0 50 50" xml:space="preserve">
  <g><path fill-rule="evenodd" clip-rule="evenodd" d="M35.442,34.093h6.546v-1.522l3.183,2.942l-3.183,2.931v-1.511h-6.546V34.093z    M40.307,25.815c-5.347,0-9.693,4.347-9.693,9.694c0,5.348,4.345,9.693,9.693,9.693c5.354,0,9.693-4.34,9.693-9.693   C50,30.155,45.659,25.815,40.307,25.815z M20.862,21.743l20.863-10.889V4.799H0v6.057L20.862,21.743z M0,14.046v22.884h27.943   c-0.911-7.947,5.835-14.694,13.782-13.783v-9.103l-20.864,10.89L0,14.046z"/></g>
</svg>