<svg xmlns="http://www.w3.org/2000/svg" xmlns:xlink="http://www.w3.org/1999/xlink" version="1.1" x="0px" y="0px" viewBox="0 0 50 62.5" enable-background="new 0 0 50 50" xml:space="preserve"><g><path fill-rule="evenodd" clip-rule="evenodd" d="M31.447,12.023c1.617-1.164,3.146-2.382,4.555-3.613   c1.982,1.736,3.656,3.756,4.777,5.915c1.711,3.298,2.109,6.853,0.446,10.226c-2.431-4.661-8.857-7.81-13.381-10.128   C29.076,13.669,30.281,12.862,31.447,12.023 M22.789,17.194l2.129-1.101l2.066,1.068c4.974,2.545,11.757,6.015,12.353,10.625   c-0.39,4.788-2.28,8.865-4.669,12.036c-3.16,4.194-7.105,6.771-9.587,7.302c-2.77-0.551-6.707-3.043-9.834-7.096   c-2.462-3.191-4.384-7.335-4.786-12.244C11.059,23.184,17.819,19.732,22.789,17.194z M24.919,2.873   c2.939,0.492,6.04,1.843,8.805,3.761c-1.24,1.065-2.557,2.106-3.929,3.093c-2.734,1.967-5.342,3.443-8.291,4.95   c-4.568,2.331-10.49,5.358-12.865,9.757c-1.522-3.359-1.058-6.957,0.614-10.239C12.175,8.457,18.603,3.92,24.919,2.873z    M21.495,28.05c-2.053,0.246-4.124,0.387-6.225,0.344C17.266,30.523,19.354,30.071,21.495,28.05z M24.365,28.921   c0-3.249-2.826-5.648-5.982-5.648c-3.156,0-5.983,2.4-5.983,5.648c0,3.249,2.827,5.648,5.983,5.648   C21.538,34.57,24.365,32.171,24.365,28.921z M18.383,25.778c1.775,0,3.477,1.277,3.477,3.144c0,1.866-1.702,3.143-3.477,3.143   c-1.775,0-3.478-1.276-3.478-3.143C14.905,27.054,16.607,25.778,18.383,25.778z M28.106,28.921c0-1.868,1.701-3.144,3.477-3.144   c1.776,0,3.477,1.277,3.477,3.144c0,1.866-1.702,3.143-3.477,3.143C29.808,32.064,28.106,30.788,28.106,28.921z M31.584,23.273   c-3.156,0-5.983,2.4-5.983,5.648c0,3.249,2.827,5.648,5.983,5.648c3.155,0,5.983-2.4,5.983-5.648   C37.566,25.673,34.739,23.273,31.584,23.273z M34.697,28.394c-2.102,0.043-4.172-0.098-6.227-0.344   C30.613,30.071,32.7,30.523,34.697,28.394z M30.619,41.196c-1.837-0.273-3.241-2.228-5.501-0.984   c-2.259-1.245-3.664,0.711-5.5,0.984c1.558,1.421,3.314,2.56,5.5,2.546C27.305,43.756,29.061,42.617,30.619,41.196z M37.154,5.668   C33.648,2.799,29.418,0.689,24.918,0C17.477,1.149,10.167,6.151,6.724,12.91C4.087,18.083,4.158,23.633,7.66,28.299   c0.503,5.388,2.631,9.941,5.347,13.46c2.812,3.644,7.407,7.486,12.091,8.241c4.476-0.75,9.201-4.977,11.833-8.47   c2.61-3.465,4.688-7.902,5.197-13.117c3.641-4.687,3.884-10.148,1.168-15.385C41.866,10.274,39.695,7.748,37.154,5.668z"/></g><text x="0" y="65" fill="#000000" font-size="5px" font-weight="bold" font-family="'Helvetica Neue', Helvetica, Arial-Unicode, Arial, Sans-serif">Created by Georgiana Ionescu</text><text x="0" y="70" fill="#000000" font-size="5px" font-weight="bold" font-family="'Helvetica Neue', Helvetica, Arial-Unicode, Arial, Sans-serif">from the Noun Project</text></svg>