<svg xmlns="http://www.w3.org/2000/svg" xmlns:xlink="http://www.w3.org/1999/xlink" version="1.1" x="0px" y="0px" viewBox="0 0 50 62.5" enable-background="new 0 0 50 50" xml:space="preserve"><g><path d="M17.865,5.572h-1.312l0,1.313c0,0.784-0.636,1.421-1.421,1.421c-0.784,0-1.421-0.635-1.421-1.421V5.572h-1.312   c-0.786,0-1.421-0.634-1.421-1.42c0-0.784,0.635-1.419,1.421-1.419h1.312V1.421C13.711,0.637,14.347,0,15.133,0   c0.782,0,1.418,0.637,1.418,1.421l0.001,1.313h1.313c0.784,0,1.421,0.634,1.421,1.419C19.286,4.938,18.649,5.572,17.865,5.572    M12.713,17.085H11.92v0.792c0,0.786-0.636,1.421-1.42,1.421c-0.784,0-1.421-0.635-1.421-1.421v-0.792H8.285   c-0.784,0-1.42-0.635-1.42-1.421c0-0.784,0.636-1.419,1.42-1.419h0.793v-0.795c0-0.784,0.637-1.419,1.421-1.419   c0.784,0,1.42,0.635,1.42,1.419v0.795h0.793c0.784,0,1.421,0.635,1.421,1.419C14.133,16.45,13.497,17.085,12.713,17.085z    M22.869,47.043c-9.031,0-17.255-5.667-20.469-14.104c-0.175-0.466-0.096-0.99,0.212-1.382c0.307-0.393,0.798-0.601,1.293-0.532   c0.8,0.1,1.613,0.151,2.419,0.151c10.504,0,19.052-8.548,19.052-19.054c0-2.331-0.419-4.61-1.242-6.778   c-0.175-0.467-0.095-0.992,0.212-1.383c0.308-0.393,0.802-0.598,1.295-0.531c10.9,1.378,19.121,10.715,19.121,21.719   C44.762,37.222,34.941,47.043,22.869,47.043z M6,34.014c3.262,6.176,9.779,10.191,16.869,10.191   c10.507,0,19.052-8.548,19.052-19.055c0-8.803-6.044-16.382-14.39-18.479c0.454,1.775,0.686,3.6,0.686,5.451   C28.217,24.303,18.157,34.234,6,34.014z M43.541,50c-0.784,0-1.421-0.635-1.421-1.421v-1.313h-1.311   c-0.786,0-1.421-0.634-1.421-1.421c0-0.784,0.635-1.419,1.421-1.419h1.311v-1.313c0-0.786,0.637-1.42,1.421-1.42   c0.784,0,1.42,0.635,1.42,1.42v1.313h1.31c0.784,0,1.42,0.635,1.42,1.419c0,0.786-0.636,1.421-1.42,1.421h-1.31v1.313   C44.961,49.365,44.325,50,43.541,50z"/></g><text x="0" y="65" fill="#000000" font-size="5px" font-weight="bold" font-family="'Helvetica Neue', Helvetica, Arial-Unicode, Arial, Sans-serif">Created by Georgiana Ionescu</text><text x="0" y="70" fill="#000000" font-size="5px" font-weight="bold" font-family="'Helvetica Neue', Helvetica, Arial-Unicode, Arial, Sans-serif">from the Noun Project</text></svg>