<svg xmlns="http://www.w3.org/2000/svg" xmlns:xlink="http://www.w3.org/1999/xlink" version="1.1" x="0px" y="0px" viewBox="0 0 50 62.5" enable-background="new 0 0 50 50" xml:space="preserve"><g><path d="M25,40.123C16.66,40.123,9.877,33.34,9.877,25c0-8.34,6.783-15.123,15.122-15.123c8.339,0,15.124,6.783,15.124,15.123   C40.123,33.34,33.339,40.123,25,40.123 M25,6.886c-0.784,0-1.421-0.635-1.421-1.421V1.42C23.579,0.635,24.216,0,25,0   c0.784,0,1.421,0.635,1.421,1.42v4.044C26.42,6.251,25.784,6.886,25,6.886z M11.187,12.607c-0.364,0-0.728-0.137-1.004-0.416   L7.321,9.332c-0.554-0.554-0.554-1.452,0-2.006c0.554-0.558,1.454-0.558,2.01,0l2.859,2.859c0.554,0.554,0.554,1.452,0,2.006   C11.913,12.47,11.55,12.607,11.187,12.607z M5.465,26.422H1.421C0.634,26.422,0,25.787,0,25.001c0-0.784,0.634-1.419,1.421-1.419   h4.044c0.784,0,1.42,0.634,1.42,1.419C6.885,25.787,6.249,26.422,5.465,26.422z M8.329,43.094c-0.364,0-0.727-0.138-1.004-0.417   c-0.554-0.554-0.554-1.452,0-2.006l2.859-2.859c0.554-0.558,1.454-0.558,2.008,0c0.556,0.554,0.556,1.452,0,2.007l-2.859,2.859   C9.056,42.956,8.692,43.094,8.329,43.094z M25.001,50c-0.784,0-1.42-0.634-1.42-1.42v-4.042c0-0.786,0.636-1.42,1.42-1.42   c0.784,0,1.421,0.635,1.421,1.42v4.042C26.422,49.366,25.785,50,25.001,50z M41.675,43.092c-0.364,0-0.727-0.137-1.004-0.417   l-2.859-2.859c-0.554-0.554-0.554-1.452,0-2.007c0.553-0.558,1.455-0.558,2.009,0l2.859,2.859c0.554,0.554,0.554,1.452,0,2.006   C42.402,42.954,42.039,43.092,41.675,43.092z M48.579,26.419h-4.044c-0.784,0-1.419-0.635-1.419-1.421   c0-0.784,0.635-1.419,1.419-1.419h4.044c0.784,0,1.421,0.635,1.421,1.419C50,25.784,49.363,26.419,48.579,26.419z M38.813,12.606   c-0.363,0-0.727-0.137-1.004-0.417c-0.554-0.554-0.554-1.452,0-2.006l2.859-2.859c0.554-0.558,1.455-0.558,2.008,0   c0.554,0.555,0.554,1.452,0,2.006l-2.859,2.859C39.54,12.468,39.177,12.606,38.813,12.606z M25,12.717   c-6.771,0-12.283,5.512-12.283,12.283S18.228,37.283,25,37.283c6.773,0,12.285-5.511,12.285-12.283S31.773,12.717,25,12.717z"/></g><text x="0" y="65" fill="#000000" font-size="5px" font-weight="bold" font-family="'Helvetica Neue', Helvetica, Arial-Unicode, Arial, Sans-serif">Created by Georgiana Ionescu</text><text x="0" y="70" fill="#000000" font-size="5px" font-weight="bold" font-family="'Helvetica Neue', Helvetica, Arial-Unicode, Arial, Sans-serif">from the Noun Project</text></svg>