<svg xmlns="http://www.w3.org/2000/svg" xmlns:xlink="http://www.w3.org/1999/xlink" version="1.1" x="0px" y="0px" viewBox="0 0 50 62.5" enable-background="new 0 0 50 50" xml:space="preserve"><g><path fill-rule="evenodd" clip-rule="evenodd" d="M33.219,6.04H16.781V8.88h1.189v34.281C17.97,48.043,21.327,50,25,50   s7.03-1.969,7.03-6.838V8.88h1.19V6.04z M20.81,23.777h8.381v19.385c0,2.767-1.518,3.999-4.19,3.999   c-2.678,0-4.19-1.225-4.19-3.999V23.777z M26.797,13.068c-0.602,0-1.09,0.488-1.09,1.089c0,0.603,0.488,1.09,1.09,1.09   c0.602,0,1.089-0.487,1.089-1.09C27.887,13.555,27.399,13.068,26.797,13.068z M25.323,18.308c0-0.946-0.767-1.713-1.713-1.713   c-0.946,0-1.713,0.766-1.713,1.713c0,0.946,0.767,1.712,1.713,1.712C24.556,20.021,25.323,19.254,25.323,18.308z M25.665,24.84   c-1.05,0-1.9,0.85-1.9,1.899c0,1.049,0.85,1.9,1.9,1.9c1.049,0,1.899-0.85,1.899-1.9C27.564,25.691,26.714,24.84,25.665,24.84z    M22.84,2.839h4.321L26.994,4.4h2.855L30.319,0H19.681l0.469,4.4h2.855L22.84,2.839z M20.81,8.879h8.381v12.057H20.81V8.879z"/></g><text x="0" y="65" fill="#000000" font-size="5px" font-weight="bold" font-family="'Helvetica Neue', Helvetica, Arial-Unicode, Arial, Sans-serif">Created by Georgiana Ionescu</text><text x="0" y="70" fill="#000000" font-size="5px" font-weight="bold" font-family="'Helvetica Neue', Helvetica, Arial-Unicode, Arial, Sans-serif">from the Noun Project</text></svg>